<svg width="102" height="39" viewBox="0 0 102 39" fill="none" xmlns="http://www.w3.org/2000/svg">
<mask id="mask0_437_2430" style="mask-type:alpha" maskUnits="userSpaceOnUse" x="1" y="8" width="100" height="19">
<path d="M15.7328 19.784V9.68H11.8928V19.784C11.8928 21.968 10.7408 23.288 8.77275 23.288C6.80475 23.288 5.65275 21.968 5.65275 19.784V9.68H1.78875V19.784C1.78875 23.864 4.42875 26.384 8.77275 26.384C13.0688 26.384 15.7328 23.864 15.7328 19.784ZM18.3105 26H21.9825V8.72H18.3105V26ZM35.9711 17.744C35.5151 14.36 33.1391 12.68 30.1391 12.68C26.3471 12.68 23.8991 15.152 23.8991 19.544C23.8991 23.768 26.2991 26.384 30.1631 26.384C33.1631 26.384 35.4911 24.824 36.0431 21.584H32.3711C32.1071 22.784 31.3391 23.408 30.2351 23.408C28.5551 23.408 27.6671 22.04 27.6671 19.544C27.6671 17.024 28.5071 15.656 30.1391 15.656C31.1951 15.656 32.0591 16.232 32.2991 17.744H35.9711ZM50.0723 21.752H46.2323C45.8483 22.928 45.0323 23.456 43.8323 23.456C42.2483 23.456 41.2883 22.352 41.0963 20.288H49.9763V19.472C49.9763 15.248 47.5523 12.68 43.6883 12.68C39.8483 12.68 37.3523 15.152 37.3523 19.544C37.3523 23.792 39.8242 26.384 43.8323 26.384C47.0003 26.384 49.4003 24.728 50.0723 21.752ZM43.6883 15.608C45.0323 15.608 45.8963 16.496 46.1843 18.176H41.1683C41.4563 16.496 42.3203 15.608 43.6883 15.608ZM51.9902 26H55.6622V19.328C55.6622 17.288 56.6462 16.04 58.8542 16.04C59.4302 16.04 59.8862 16.088 60.3182 16.184V13.088C60.0542 12.824 59.5742 12.68 59.0462 12.68C57.7262 12.68 56.4782 13.352 55.6622 14.888V13.088H51.9902V26ZM65.2933 17.36C65.4613 16.352 66.1333 15.656 67.3813 15.656C68.7973 15.656 69.4933 16.4 69.4933 17.816V18.104C67.5013 18.128 65.8933 18.296 64.2133 18.848C62.1733 19.568 61.1653 20.912 61.1653 22.664C61.1653 25.136 62.9893 26.384 65.4373 26.384C66.9733 26.384 68.5093 25.784 69.5173 24.392C69.5413 25.016 69.6133 25.568 69.7333 26H73.5253C73.3093 25.328 73.1653 24.464 73.1653 22.784V17.84C73.1653 14.84 71.2453 12.68 67.5493 12.68C64.2373 12.68 62.0053 14.456 61.6213 17.36H65.2933ZM64.8373 22.424C64.8373 21.224 65.7733 20.312 69.4933 20.24V20.744C69.4933 22.52 68.1973 23.84 66.5653 23.84C65.4853 23.84 64.8373 23.288 64.8373 22.424ZM78.5064 26H83.0424L87.6024 13.088H83.8344L81.1944 21.632L80.8584 23.192L80.5224 21.632L77.9064 13.088H73.9464L78.5064 26ZM100.861 21.752H97.0213C96.6373 22.928 95.8213 23.456 94.6213 23.456C93.0373 23.456 92.0773 22.352 91.8853 20.288H100.765V19.472C100.765 15.248 98.3413 12.68 94.4773 12.68C90.6373 12.68 88.1413 15.152 88.1413 19.544C88.1413 23.792 90.6133 26.384 94.6213 26.384C97.7893 26.384 100.189 24.728 100.861 21.752ZM94.4773 15.608C95.8213 15.608 96.6853 16.496 96.9733 18.176H91.9573C92.2453 16.496 93.1093 15.608 94.4773 15.608Z" fill="#1F1F1F"/>
</mask>
<g mask="url(#mask0_437_2430)">
<rect width="204" height="35" transform="matrix(-1 0 0 1 198 0)" fill="url(#paint0_linear_437_2430)"/>
</g>
<defs>
<linearGradient id="paint0_linear_437_2430" x1="25.5" y1="17.5" x2="204" y2="17.5" gradientUnits="userSpaceOnUse">
<stop stop-color="white"/>
<stop offset="0.203818" stop-color="#FFEE51"/>
<stop offset="0.503348" stop-color="#CA74FE"/>
<stop offset="1" stop-color="#10FCFC"/>
</linearGradient>
</defs>
</svg>
